<?xml version="1.0" standalone="no"?>
<!DOCTYPE svg PUBLIC "-//W3C//DTD SVG 20010904//EN"
 "http://www.w3.org/TR/2001/REC-SVG-20010904/DTD/svg10.dtd">
<svg version="1.0" xmlns="http://www.w3.org/2000/svg"
 width="1067.000000pt" height="1067.000000pt" viewBox="0 0 1067.000000 1067.000000"
 preserveAspectRatio="xMidYMid meet">
<metadata>
Created by potrace 1.11, written by Peter Selinger 2001-2013
</metadata>
<g transform="translate(0.000000,1067.000000) scale(0.100000,-0.100000)"
fill="#000000" stroke="none">
<path d="M5170 10651 c-111 -30 -221 -95 -308 -181 -63 -63 -296 -384 -512
-705 -316 -471 -604 -966 -825 -1419 -58 -118 -105 -217 -105 -220 0 -3 -17
-42 -38 -88 -57 -121 -168 -404 -217 -548 l-43 -125 -36 -6 c-45 -7 -105 -54
-128 -100 -16 -30 -18 -69 -18 -357 0 -277 2 -329 16 -358 23 -49 78 -93 124
-100 28 -5 40 -11 40 -23 -1 -9 -25 -110 -55 -226 -34 -134 -58 -209 -65 -207
-13 3 -95 51 -309 180 -146 89 -183 99 -239 66 -60 -36 -74 -90 -48 -189 2
-11 14 -60 25 -110 11 -49 32 -144 46 -210 15 -66 36 -160 47 -210 11 -49 24
-108 29 -130 4 -22 10 -49 13 -60 6 -24 37 -165 66 -300 24 -107 54 -178 100
-236 l28 -36 4 -244 c5 -272 10 -299 75 -407 69 -113 141 -173 316 -261 48
-24 87 -47 87 -50 0 -3 -89 -30 -197 -60 -291 -78 -481 -130 -540 -147 -93
-26 -153 -97 -153 -183 0 -52 13 -84 55 -135 l35 -42 -123 -22 c-177 -32 -173
-31 -282 -52 -55 -10 -116 -21 -135 -25 -454 -76 -548 -103 -672 -191 -53 -38
-148 -135 -185 -189 -39 -58 -84 -159 -104 -238 -18 -69 -19 -124 -16 -1157
l2 -1085 30 -58 c41 -83 124 -156 205 -184 l65 -22 4120 2 4120 2 66 31 c110
53 184 145 209 262 7 31 10 414 8 1107 -3 994 -4 1063 -22 1115 -19 59 -67
172 -76 180 -3 3 -12 18 -20 34 -26 50 -139 164 -210 211 -99 66 -206 103
-375 130 -11 1 -47 8 -80 15 -33 6 -71 13 -85 15 -14 2 -88 15 -165 30 -77 15
-149 28 -160 30 -11 1 -42 6 -70 10 -27 4 -53 9 -56 11 -3 2 -21 6 -40 9 -19
3 -45 7 -59 10 -67 13 -96 17 -107 18 -14 0 -2 27 22 47 42 35 64 127 45 186
-15 45 -54 90 -93 108 -18 8 -185 56 -372 106 -187 51 -356 97 -376 104 l-37
12 66 34 c229 120 283 162 351 274 69 115 75 145 79 416 l3 245 29 40 c41 55
68 117 86 195 8 36 19 81 24 100 5 19 12 51 15 70 3 19 12 60 20 90 8 30 16
66 19 80 2 14 14 69 26 124 12 54 23 106 25 115 2 9 9 39 15 66 6 28 13 57 15
65 2 8 8 35 14 60 5 25 12 57 15 73 2 15 7 35 10 45 3 9 7 28 10 42 2 14 13
63 24 110 11 47 19 96 17 110 -1 14 -3 31 -4 38 -1 16 -58 72 -74 73 -78 7
-76 8 -308 -131 l-229 -137 -12 41 c-6 22 -13 48 -14 57 -2 8 -11 42 -19 75
-9 32 -18 70 -21 82 -3 13 -12 49 -20 80 -26 95 -28 122 -9 122 24 0 87 35
112 62 44 47 48 83 47 408 -1 184 -6 315 -12 331 -21 52 -70 97 -122 110 l-48
12 -43 121 c-129 373 -350 868 -542 1214 -25 45 -42 82 -37 82 5 0 49 -9 97
-21 168 -39 301 -27 413 38 111 65 204 196 229 323 25 130 -11 287 -89 384
-25 31 -105 105 -155 143 -5 5 -24 19 -41 33 -207 167 -570 422 -719 504 -16
9 -52 30 -80 46 -266 159 -640 320 -889 385 -212 55 -399 69 -516 36z"/>
</g>
</svg>
